<svg width="363" height="363" viewBox="0 0 363 363" fill="none" xmlns="http://www.w3.org/2000/svg">
<g clip-path="url(#clip0_128_192)">
<circle cx="181.5" cy="181.5" r="181.5" fill="#243957"/>
<circle cx="181.5" cy="181.5" r="164.5" fill="#243957" stroke="white" stroke-width="4"/>
<path d="M80.6729 179.183C73.082 187.662 70.6093 188.163 68.0651 188.163C60.0472 188.163 53.2627 178.871 53.2627 166.298C53.2627 158.411 55.9611 155.054 62.9768 155.054C67.9109 155.054 70.378 156.693 71.8428 162.004L77.625 162.16C77.625 162.16 78.9582 154.21 78.9582 146.713C78.9582 146.713 74.8008 143.142 64.8271 143.731C50.0247 150.524 39 155.054 39 172.077C39 190.193 51.4124 202.375 67.6025 199.955L81.0951 185.554L80.6729 179.183Z" fill="white"/>
<path d="M113.824 148.026C113.824 141.857 106.577 137.171 97.0173 137.171C83.6797 146.464 79.6707 150.837 79.6707 166.611C79.6707 174.498 80.6729 186.367 80.6729 189.725C80.6729 191.99 80.2104 194.098 78.9768 196.831C79.8249 200.345 86.2238 201.829 91.4664 200.345C96.015 184.024 99.4072 177.231 101.797 177.231C102.877 177.231 103.416 178.636 103.416 182.15C103.416 186.992 102.414 192.38 102.414 195.347C104.341 198.549 105.883 201.048 109.43 201.907L125.557 190.155L123.167 186.329C116.874 189.186 115.983 188.788 115.983 183.244C115.983 177.309 117.448 169.188 117.448 165.596C113.439 163.409 112.514 161.379 109.738 161.379C104.187 161.379 97.4798 169.734 93.2396 179.183V166.767C105.189 159.27 113.824 154.741 113.824 148.026ZM94.396 148.963C94.9357 147.635 95.7837 146.854 96.9402 146.854C99.0217 146.854 102.106 149.119 102.106 151.383C102.106 154.117 97.634 157.24 93.2396 160.286C93.3167 154.273 93.5479 150.993 94.396 148.963Z" fill="white"/>
<path d="M167.068 183.634C167.068 183.634 161.298 187.773 158.595 187.773C156.821 187.773 155.896 185.664 155.896 180.901C155.896 175.981 156.898 170.047 156.821 164.58C150.654 160.676 146.799 156.928 139.089 156.928L125.829 164.659L128.142 169.969C131.225 168.719 133.23 167.86 135.389 167.86C137.547 167.86 140.246 168.719 141.865 169.812C143.252 170.749 143.638 171.765 143.638 172.545C143.638 175.044 139.475 175.513 134.078 177.231C126.677 179.573 122.976 182.15 122.976 188.71C122.976 195.113 126.523 200.345 133.77 201.36L144.178 193.161C144.563 197.456 146.413 200.735 150.422 201.907L168 188.476L167.068 183.634ZM143.561 179.495C143.715 184.259 143.561 186.133 142.559 187.617C141.633 189.022 140.092 189.881 139.321 189.881C137.933 189.881 136.699 187.695 136.699 185.274C136.699 181.604 139.398 181.213 143.561 179.495Z" fill="white"/>
<path d="M165.835 147.948L169.921 153.414L184.878 145.605C183.181 137.64 176.166 136 176.166 136L165.835 147.948ZM191.761 183.087C184.878 186.601 179.943 188.71 179.943 183.087C179.943 176.138 182.333 167.001 182.488 162.082C179.789 159.817 178.864 157.474 175.549 156.928L160.515 164.346L161.672 169.266C165.681 168.172 167.068 169.031 167.068 177.387C167.068 187.695 164.987 194.254 165.064 195.738C165.064 195.738 167.994 201.126 172.928 201.907L193.381 187.538L191.761 183.087Z" fill="white"/>
<path d="M206.95 195.894C206.95 194.801 205.254 189.881 205.254 185.118C205.254 179.652 207.49 171.53 211.344 171.53C213.195 171.53 214.197 173.404 214.814 176.138L219.208 176.059C219.208 176.059 220.75 167.548 220.981 159.583C220.981 159.583 217.743 157.084 211.653 157.084C211.653 157.084 208.183 162.55 204.868 172.545C204.868 168.172 205.177 162.784 205.331 160.364C203.249 158.646 201.707 156.85 199.472 156.85L185.055 164.346L186.288 169.266C186.288 169.266 187.599 168.563 188.678 168.563C191.068 168.563 191.762 171.686 191.762 182.541C191.762 193.942 190.991 193.864 188.061 196.831C188.524 200.501 191.068 202.531 191.068 202.531L206.95 195.894Z" fill="white"/>
<path d="M251.123 181.329C251.123 181.329 242.257 187.695 238.711 187.695C235.165 187.695 233.314 181.369 232.697 171.765C242.334 161.847 251.586 156.303 251.586 148.728C251.586 142.169 244.493 137.093 235.165 137.093C224.294 147.167 219.129 148.338 219.129 171.686C219.129 188.007 221.673 200.423 232.081 201.907L251.123 186.601V181.329ZM232.389 160.91C232.389 150.603 233.391 147.791 235.473 147.791C237.632 147.791 239.713 150.759 239.713 153.023C239.713 155.21 237.786 158.568 232.389 165.517V160.91Z" fill="white"/>
<path d="M249.503 148.963L252.741 153.96L269.702 146.62C266.387 135.453 261.298 136.39 261.298 136.39L249.503 148.963ZM275.198 182.758C264.485 189.424 263.303 188.241 263.303 182.385C263.303 175.122 265.847 167.157 266.001 162.082C263.303 159.739 262.378 157.396 259.062 156.928L243.952 164.346L245.185 169.266C249.194 168.094 250.582 169.188 250.582 177.075C250.582 186.836 248.423 194.254 248.423 195.738C248.423 195.738 251.353 201.126 256.287 201.985L276.486 187.538L275.198 182.758Z" fill="white"/>
<path d="M315.982 171.843L324 168.094L322.612 163.331C318.603 164.815 315.365 165.205 310.277 165.127C310.585 155.444 311.588 153.414 314.517 149.197L311.048 145.839L301.951 152.945C302.567 149.9 303.338 145.293 303.415 140.763C303.415 140.763 299.561 137.952 291.466 138.265C281.135 150.446 274.813 152.399 274.659 164.737H268.954C268.954 164.737 268.337 167.47 268.799 170.749C274.89 171.452 275.198 171.686 275.198 183.244C275.198 193.317 274.967 192.848 270.264 197.69C270.264 197.69 270.958 200.735 273.04 203L290.155 195.738C290.155 192.692 288.69 183.322 288.15 171.452H296.477H296.554V178.402C296.554 181.916 296.168 191.99 296.168 195.191C299.406 200.189 304.109 201.516 304.109 201.516L323.923 188.944L321.687 185.04C321.687 185.04 316.522 188.319 314.363 188.319C313.515 188.319 312.667 187.851 311.973 187.304C310.2 185.586 310.2 183.868 310.2 174.263V171.765L315.982 171.843ZM287.919 162.082C287.919 156.772 288.073 154.897 288.767 153.258C289.615 151.149 290.695 150.603 292.468 150.603C295.012 150.603 296.631 151.774 296.554 157.162L296.477 164.737H287.919V162.082Z" fill="white"/>
<g opacity="0.6">
<path d="M81 219.434V234.589C82.8552 234.771 84.687 234.931 86.3779 234.931C91.6618 234.931 94.5739 233.377 94.5739 230.154C94.5739 228.166 93.5171 226.954 91.427 226.383C93.0709 225.651 93.7284 224.349 93.7284 222.886C93.7284 220.28 91.1921 219.069 86.6597 219.069C84.6635 219.069 82.4091 219.274 81 219.434ZM86.8945 225.537C86.4718 225.537 86.0491 225.537 85.509 225.537V222.154C86.0021 222.131 86.4718 222.109 86.8476 222.109C88.5854 222.109 89.3839 222.657 89.3839 223.846C89.3839 224.463 89.1255 224.989 88.5854 225.263C88.1862 225.446 87.7165 225.537 86.8945 225.537ZM87.1059 231.914C86.6832 231.914 86.0961 231.914 85.509 231.869V228.234C85.9786 228.211 86.4248 228.211 86.8006 228.211C89.2195 228.211 90.0414 228.851 90.0414 230.063C90.0414 230.726 89.7361 231.251 89.1725 231.571C88.7733 231.8 88.2331 231.914 87.1059 231.914Z" fill="white"/>
<path d="M108.4 226.634C108.141 226.634 107.789 226.634 107.413 226.611V222.406C107.93 222.383 108.423 222.36 108.776 222.36C110.584 222.36 111.57 222.931 111.57 224.394C111.57 225.446 111.124 225.949 110.466 226.269C109.973 226.52 109.245 226.634 108.4 226.634ZM102.787 219.434V234.657H107.413V229.629C107.836 229.651 108.259 229.674 108.564 229.674C108.799 229.674 109.034 229.674 109.269 229.651L112.063 234.657H116.831C116.76 234.063 116.408 233.469 116.079 232.92L113.378 228.646C115.257 227.64 116.244 225.971 116.244 223.983C116.244 220.417 112.815 219.069 108.259 219.069C106.357 219.069 104.149 219.274 102.787 219.434Z" fill="white"/>
<path d="M124.872 219.343V234.657H136.638L136.45 231.48H129.499V228.509H134.806V225.446H129.499V222.52H136.403L136.567 219.343H124.872Z" fill="white"/>
<path d="M164.196 219.343L161.448 230.246H161.307L160.791 226.794L159.053 219.343H153.628L151.162 230.246H151.021L150.411 226.817L148.438 219.343H143.694C143.718 220.029 144.023 220.92 144.328 221.971L148.227 234.703L153.581 234.611L155.976 223.777H156.094L156.516 226.703L158.325 234.703L163.656 234.611L167.906 221.994C168.212 221.08 168.611 220.029 168.634 219.343H164.196Z" fill="white"/>
<path d="M176.29 219.343V234.657H180.916V219.343H176.29Z" fill="white"/>
<path d="M190.027 219.343V234.657H193.996V227.731L193.832 224.92H193.902L195.382 227.457L200.501 234.657H205.198V219.343H201.229V226.269L201.393 229.103H201.323L199.797 226.543L194.654 219.343H190.027Z" fill="white"/>
<path d="M213.516 227.389C213.516 231.754 216.662 234.931 222.04 234.931C224.6 234.931 226.573 234.52 228.052 233.834V227H223.896V231.549C223.402 231.594 222.933 231.64 222.557 231.64C219.551 231.64 218.33 229.697 218.33 227.183C218.33 225.651 218.729 224.28 219.833 223.389C220.467 222.909 221.336 222.474 222.862 222.474C224.271 222.474 225.422 222.726 226.643 223.16L228.076 220.326C226.479 219.48 224.764 219.069 222.698 219.069C216.381 219.069 213.516 223.183 213.516 227.389Z" fill="white"/>
<path d="M246.747 227.274C246.747 231.846 249.847 234.931 254.802 234.931C257.01 234.931 258.818 234.543 260.415 233.834L259.429 230.931C258.348 231.297 257.08 231.526 255.929 231.526C252.736 231.526 251.538 229.56 251.538 227.137C251.538 225.651 251.984 224.234 252.97 223.366C253.604 222.794 254.544 222.474 255.718 222.474C256.939 222.474 258.02 222.726 259.076 223.137L260.509 220.257C259.311 219.594 257.55 219.069 255.366 219.069C249.777 219.069 246.747 222.817 246.747 227.274Z" fill="white"/>
<path d="M267.594 227.091C267.594 231.457 270.201 235 275.649 235C280.98 235 284.056 231.411 284.056 226.909C284.056 222.543 281.45 219 276.025 219C270.67 219 267.594 222.589 267.594 227.091ZM279.266 226.886C279.266 228.326 278.913 229.971 277.903 230.931C277.434 231.411 276.776 231.709 275.837 231.709C273.441 231.709 272.385 229.4 272.385 227C272.385 225.583 272.807 224.006 273.817 223.046C274.287 222.543 274.991 222.291 275.86 222.291C278.256 222.291 279.266 224.486 279.266 226.886Z" fill="white"/>
<path d="M285.256 232.92C285.256 234.154 286.196 235 287.605 235C289.061 235 290 234.154 290 232.851C290 231.663 289.061 230.863 287.652 230.863C286.219 230.863 285.256 231.686 285.256 232.92Z" fill="white"/>
</g>
</g>
<defs>
<clipPath id="clip0_128_192">
<rect width="363" height="363" fill="white"/>
</clipPath>
</defs>
</svg>
