<svg width="243" height="90" viewBox="0 0 243 90" fill="none" xmlns="http://www.w3.org/2000/svg">
<path d="M35.5317 36.7378C29.0594 43.9515 26.9511 44.3776 24.7818 44.3776C17.9455 44.3776 12.1608 36.472 12.1608 25.7762C12.1608 19.0664 14.4615 16.2098 20.4434 16.2098C24.6504 16.2098 26.7539 17.6049 28.0028 22.1224L32.9329 22.2552C32.9329 22.2552 34.0696 15.492 34.0696 9.11436C34.0696 9.11436 30.5249 6.07624 22.021 6.57692C9.40001 12.3566 0 16.2098 0 30.6923C0 46.1049 10.5832 56.4685 24.3874 54.4091L35.8916 42.1577L35.5317 36.7378Z" fill="white"/>
<path d="M63.7974 10.2308C63.7974 4.98252 57.6184 0.996502 49.4673 0.996502C38.0953 8.9021 34.6771 12.6224 34.6771 26.042C34.6771 32.7518 35.5317 42.8497 35.5317 45.7063C35.5317 47.6329 35.1373 49.4266 34.0855 51.7518C34.8086 54.7413 40.2645 56.0035 44.7345 54.7413C48.6128 40.8566 51.5051 35.0769 53.5429 35.0769C54.4631 35.0769 54.9233 36.2727 54.9233 39.2622C54.9233 43.3811 54.0687 47.965 54.0687 50.4895C55.7121 53.2133 57.0268 55.3392 60.0506 56.0699L73.8009 46.0725L71.7632 42.8172C66.3982 45.2477 65.638 44.9091 65.638 40.1923C65.638 35.1434 66.8869 28.2343 66.8869 25.1783C63.4688 23.3182 62.6799 21.5909 60.3135 21.5909C55.5806 21.5909 49.8617 28.6993 46.2464 36.7378V26.1748C56.4352 19.7972 63.7974 15.9441 63.7974 10.2308ZM47.2324 11.028C47.6925 9.8986 48.4156 9.23427 49.4016 9.23427C51.1764 9.23427 53.8058 11.1608 53.8058 13.0874C53.8058 15.4126 49.9932 18.0699 46.2464 20.6608C46.3121 15.5455 46.5093 12.7552 47.2324 11.028Z" fill="white"/>
<path d="M109.195 40.5245C109.195 40.5245 104.276 44.0455 101.97 44.0455C100.458 44.0455 99.6693 42.2518 99.6693 38.1993C99.6693 34.014 100.524 28.965 100.458 24.3147C95.1994 20.993 91.9127 17.8042 85.3393 17.8042L74.033 24.3811L76.005 28.8986C78.6344 27.8357 80.3435 27.1049 82.184 27.1049C84.0246 27.1049 86.3253 27.8357 87.7057 28.7657C88.8889 29.5629 89.2176 30.4266 89.2176 31.0909C89.2176 33.2168 85.6679 33.6154 81.0665 35.0769C74.756 37.0699 71.6008 39.2622 71.6008 44.8427C71.6008 50.2902 74.6246 54.7413 80.8036 55.6049L89.6777 48.6294C90.0064 52.2832 91.584 55.0734 95.0022 56.0699L109.99 44.6434L109.195 40.5245ZM89.1519 37.0035C89.2833 41.0559 89.1519 42.6504 88.2973 43.9126C87.5085 45.1084 86.1938 45.8392 85.5365 45.8392C84.3532 45.8392 83.3015 43.979 83.3015 41.9196C83.3015 38.7972 85.6022 38.465 89.1519 37.0035Z" fill="white"/>
<path d="M108.143 10.1643L111.627 14.8147L124.38 8.17133C122.934 1.3951 116.952 0 116.952 0L108.143 10.1643ZM130.249 40.0594C124.38 43.049 120.173 44.8427 120.173 40.0594C120.173 34.1469 122.211 26.3741 122.342 22.1888C120.041 20.2622 119.253 18.2692 116.426 17.8042L103.608 24.1154L104.594 28.3007C108.012 27.3706 109.195 28.1014 109.195 35.2098C109.195 43.979 107.42 49.5594 107.486 50.8217C107.486 50.8217 109.984 55.4056 114.191 56.0699L131.63 43.8462L130.249 40.0594Z" fill="white"/>
<path d="M143.199 50.9545C143.199 50.0245 141.753 45.8392 141.753 41.7867C141.753 37.1364 143.66 30.2273 146.946 30.2273C148.524 30.2273 149.378 31.8217 149.904 34.1469L153.651 34.0804C153.651 34.0804 154.966 26.8392 155.163 20.0629C155.163 20.0629 152.402 17.9371 147.209 17.9371C147.209 17.9371 144.251 22.5874 141.425 31.0909C141.425 27.3706 141.687 22.7867 141.819 20.7273C140.044 19.2657 138.729 17.7378 136.823 17.7378L124.531 24.1154L125.583 28.3007C125.583 28.3007 126.7 27.7028 127.62 27.7028C129.658 27.7028 130.25 30.3601 130.25 39.5944C130.25 49.2937 129.592 49.2273 127.094 51.7518C127.489 54.8741 129.658 56.6014 129.658 56.6014L143.199 50.9545Z" fill="white"/>
<path d="M180.863 38.5639C180.863 38.5639 173.304 43.979 170.28 43.979C167.256 43.979 165.678 38.5979 165.153 30.4266C173.369 21.9895 181.257 17.2727 181.257 10.8287C181.257 5.24825 175.21 0.930069 167.256 0.930069C157.988 9.5 153.583 10.4965 153.583 30.3601C153.583 44.2448 155.753 54.8077 164.627 56.0699L180.863 43.049V38.5639ZM164.89 21.1923C164.89 12.4231 165.744 10.0315 167.519 10.0315C169.36 10.0315 171.134 12.5559 171.134 14.4825C171.134 16.3427 169.491 19.1993 164.89 25.1119V21.1923Z" fill="white"/>
<path d="M179.481 11.028L182.242 15.2797L196.703 9.03496C193.877 -0.465037 189.538 0.332168 189.538 0.332168L179.481 11.028ZM201.39 39.7791C192.255 45.4503 191.248 44.4441 191.248 39.4615C191.248 33.2832 193.417 26.507 193.548 22.1888C191.248 20.1958 190.459 18.2028 187.632 17.8042L174.748 24.1154L175.8 28.3007C179.218 27.3042 180.401 28.2343 180.401 34.9441C180.401 43.2483 178.561 49.5594 178.561 50.8217C178.561 50.8217 181.059 55.4056 185.266 56.1364L202.488 43.8462L201.39 39.7791Z" fill="white"/>
<path d="M236.164 30.493L243 27.3042L241.817 23.2517C238.399 24.514 235.638 24.8462 231.299 24.7797C231.562 16.542 232.417 14.8147 234.915 11.2273L231.957 8.37063L224.2 14.4161C224.726 11.8252 225.383 7.90559 225.449 4.05245C225.449 4.05245 222.162 1.66084 215.26 1.92657C206.452 12.2902 201.061 13.951 200.93 24.4476H196.066C196.066 24.4476 195.54 26.7727 195.934 29.5629C201.127 30.1608 201.39 30.3601 201.39 40.1923C201.39 48.7622 201.193 48.3636 197.183 52.4825C197.183 52.4825 197.775 55.0734 199.55 57L214.143 50.8217C214.143 48.2308 212.894 40.2587 212.434 30.1608H219.533H219.599V36.0734C219.599 39.0629 219.27 47.6329 219.27 50.3566C222.031 54.6084 226.041 55.7378 226.041 55.7378L242.934 45.042L241.028 41.7203C241.028 41.7203 236.624 44.5105 234.783 44.5105C234.06 44.5105 233.337 44.1119 232.745 43.6469C231.234 42.1853 231.234 40.7238 231.234 32.5525V30.4266L236.164 30.493ZM212.236 22.1888C212.236 17.6713 212.368 16.0769 212.959 14.6818C213.682 12.8881 214.603 12.4231 216.115 12.4231C218.284 12.4231 219.664 13.4196 219.599 18.0035L219.533 24.4476H212.236V22.1888Z" fill="white"/>
<path opacity="0.6" d="M35.7726 70.68V83.94C37.3526 84.1 38.9126 84.24 40.3526 84.24C44.8526 84.24 47.3326 82.88 47.3326 80.06C47.3326 78.32 46.4326 77.26 44.6526 76.76C46.0526 76.12 46.6126 74.98 46.6126 73.7C46.6126 71.42 44.4526 70.36 40.5926 70.36C38.8926 70.36 36.9726 70.54 35.7726 70.68ZM40.7926 76.02C40.4326 76.02 40.0726 76.02 39.6126 76.02V73.06C40.0326 73.04 40.4326 73.02 40.7526 73.02C42.2326 73.02 42.9126 73.5 42.9126 74.54C42.9126 75.08 42.6926 75.54 42.2326 75.78C41.8926 75.94 41.4926 76.02 40.7926 76.02ZM40.9726 81.6C40.6126 81.6 40.1126 81.6 39.6126 81.56V78.38C40.0126 78.36 40.3926 78.36 40.7126 78.36C42.7726 78.36 43.4726 78.92 43.4726 79.98C43.4726 80.56 43.2126 81.02 42.7326 81.3C42.3926 81.5 41.9326 81.6 40.9726 81.6ZM59.1073 76.98C58.8873 76.98 58.5873 76.98 58.2673 76.96V73.28C58.7073 73.26 59.1273 73.24 59.4273 73.24C60.9673 73.24 61.8073 73.74 61.8073 75.02C61.8073 75.94 61.4273 76.38 60.8673 76.66C60.4473 76.88 59.8273 76.98 59.1073 76.98ZM54.3273 70.68V84H58.2673V79.6C58.6273 79.62 58.9873 79.64 59.2473 79.64C59.4473 79.64 59.6473 79.64 59.8473 79.62L62.2273 84H66.2873C66.2273 83.48 65.9273 82.96 65.6473 82.48L63.3473 78.74C64.9473 77.86 65.7873 76.4 65.7873 74.66C65.7873 71.54 62.8673 70.36 58.9873 70.36C57.3673 70.36 55.4873 70.54 54.3273 70.68ZM73.1359 70.6V84H83.1559L82.9959 81.22H77.0759V78.62H81.5959V75.94H77.0759V73.38H82.9559L83.0959 70.6H73.1359ZM106.625 70.6L104.285 80.14H104.165L103.725 77.12L102.245 70.6H97.6252L95.5252 80.14H95.4052L94.8852 77.14L93.2052 70.6H89.1652C89.1852 71.2 89.4452 71.98 89.7052 72.9L93.0252 84.04L97.5852 83.96L99.6252 74.48H99.7252L100.085 77.04L101.625 84.04L106.165 83.96L109.785 72.92C110.045 72.12 110.385 71.2 110.405 70.6H106.625ZM116.925 70.6V84H120.865V70.6H116.925ZM128.624 70.6V84H132.004V77.94L131.864 75.48H131.924L133.184 77.7L137.544 84H141.544V70.6H138.164V76.66L138.304 79.14H138.244L136.944 76.9L132.564 70.6H128.624ZM148.628 77.64C148.628 81.46 151.308 84.24 155.888 84.24C158.068 84.24 159.748 83.88 161.008 83.28V77.3H157.468V81.28C157.048 81.32 156.648 81.36 156.328 81.36C153.768 81.36 152.728 79.66 152.728 77.46C152.728 76.12 153.068 74.92 154.008 74.14C154.548 73.72 155.288 73.34 156.588 73.34C157.788 73.34 158.768 73.56 159.808 73.94L161.028 71.46C159.668 70.72 158.208 70.36 156.448 70.36C151.068 70.36 148.628 73.96 148.628 77.64ZM176.929 77.54C176.929 81.54 179.569 84.24 183.789 84.24C185.669 84.24 187.209 83.9 188.569 83.28L187.729 80.74C186.809 81.06 185.729 81.26 184.749 81.26C182.029 81.26 181.009 79.54 181.009 77.42C181.009 76.12 181.389 74.88 182.229 74.12C182.769 73.62 183.569 73.34 184.569 73.34C185.609 73.34 186.529 73.56 187.429 73.92L188.649 71.4C187.629 70.82 186.129 70.36 184.269 70.36C179.509 70.36 176.929 73.64 176.929 77.54ZM194.683 77.38C194.683 81.2 196.903 84.3 201.543 84.3C206.083 84.3 208.703 81.16 208.703 77.22C208.703 73.4 206.483 70.3 201.863 70.3C197.303 70.3 194.683 73.44 194.683 77.38ZM204.623 77.2C204.623 78.46 204.323 79.9 203.463 80.74C203.063 81.16 202.503 81.42 201.703 81.42C199.663 81.42 198.763 79.4 198.763 77.3C198.763 76.06 199.123 74.68 199.983 73.84C200.383 73.4 200.983 73.18 201.723 73.18C203.763 73.18 204.623 75.1 204.623 77.2ZM209.725 82.48C209.725 83.56 210.525 84.3 211.725 84.3C212.965 84.3 213.765 83.56 213.765 82.42C213.765 81.38 212.965 80.68 211.765 80.68C210.545 80.68 209.725 81.4 209.725 82.48Z" fill="white"/>
</svg>
